<svg xmlns="http://www.w3.org/2000/svg" width="1200" height="800" viewBox="0 0 1200 800" role="img" aria-label="Abstract hero illustration with cards and gradients">
  <defs>
    <linearGradient id="g1" x1="0" x2="1" y1="0" y2="1">
      <stop offset="0%" stop-color="#0ea5e9"/>
      <stop offset="100%" stop-color="#22d3ee"/>
    </linearGradient>
    <filter id="blur" x="-50%" y="-50%" width="200%" height="200%">
      <feGaussianBlur stdDeviation="40"/>
    </filter>
  </defs>
  <rect width="1200" height="800" fill="#0b1220"/>
  <circle cx="300" cy="200" r="140" fill="url(#g1)" opacity="0.25" filter="url(#blur)"/>
  <circle cx="900" cy="300" r="160" fill="url(#g1)" opacity="0.2" filter="url(#blur)"/>
  <g transform="translate(200,220)">
    <rect width="320" height="200" rx="20" fill="#0f172a" stroke="#16324a"/>
    <rect x="20" y="20" width="80" height="80" rx="12" fill="#0ea5e9" opacity="0.15"/>
    <rect x="120" y="20" width="180" height="16" rx="8" fill="#1f2937"/>
    <rect x="120" y="44" width="160" height="12" rx="6" fill="#1f2937"/>
    <rect x="20" y="120" width="280" height="48" rx="12" fill="#0ea5e9" opacity="0.12"/>
  </g>
  <g transform="translate(620,320)">
    <rect width="320" height="200" rx="20" fill="#0f172a" stroke="#16324a"/>
    <rect x="20" y="20" width="80" height="80" rx="12" fill="#22d3ee" opacity="0.15"/>
    <rect x="120" y="20" width="180" height="16" rx="8" fill="#1f2937"/>
    <rect x="120" y="44" width="160" height="12" rx="6" fill="#1f2937"/>
    <rect x="20" y="120" width="280" height="48" rx="12" fill="#22d3ee" opacity="0.12"/>
  </g>
</svg>
